<?xml version="1.0" encoding="utf-8"?>
<!-- Generator: Adobe Illustrator 14.0.0, SVG Export Plug-In . SVG Version: 6.00 Build 43363)  -->
<!DOCTYPE svg PUBLIC "-//W3C//DTD SVG 1.1//EN" "http://www.w3.org/Graphics/SVG/1.1/DTD/svg11.dtd">
<svg version="1.1" id="Calque_1" xmlns="http://www.w3.org/2000/svg" xmlns:xlink="http://www.w3.org/1999/xlink" x="0px" y="0px"
	 width="130.055px" height="124.062px" viewBox="0 0 130.055 124.062" enable-background="new 0 0 130.055 124.062"
	 xml:space="preserve">
<path fill="#C5D0E2" d="M130.055,55.733C130.055,24.953,105.102,0,74.321,0C43.54,0,18.587,24.953,18.587,55.733
	c0,30.781,24.953,55.733,55.734,55.733C105.102,111.467,130.055,86.515,130.055,55.733"/>
<path d="M66.527,57.469c-0.494-0.042-0.967-0.3-1.153-0.759c-3.981-9.726-13.424-16.138-24.059-16.138
	c-14.12,0-25.647,11.309-26.005,25.344c-0.011,0.457-0.41,0.804-0.865,0.753c-0.478-0.054-0.958-0.082-1.438-0.082
	C5.835,66.587,0,72.421,0,79.593S5.835,92.6,13.007,92.6h9.946c0.845,0,1.53-0.686,1.53-1.53s-0.685-1.53-1.53-1.53h-9.946
	c-5.484,0-9.946-4.462-9.946-9.946c0-5.483,4.462-9.945,9.946-9.945c1.153,0,2.306,0.208,3.426,0.619l0.853,0.313
	c0.665,0.243,1.356-0.291,1.285-0.996l-0.089-0.904c-0.083-0.835-0.12-1.481-0.12-2.092c0-12.656,10.297-22.953,22.953-22.953
	c9.788,0,18.431,6.153,21.652,15.362c0.31,0.881,1.132,1.504,2.066,1.47c8.015,0,14.536,6.522,14.536,14.537
	c0,8.016-6.521,14.536-14.536,14.536h-8.416c-0.846,0-1.53,0.686-1.53,1.53s0.684,1.53,1.53,1.53h8.416
	c9.702,0,17.597-7.894,17.597-17.597C82.63,65.803,75.533,58.229,66.527,57.469"/>
<path d="M26.341,95.291c0.76,0,1.376,0.616,1.376,1.376c0,0.761-0.616,1.377-1.376,1.377s-1.376-0.616-1.376-1.377
	C24.965,95.907,25.581,95.291,26.341,95.291"/>
<path d="M26.34,99.044c-1.311,0-2.376-1.065-2.376-2.376s1.065-2.377,2.376-2.377s2.377,1.066,2.377,2.377
	S27.651,99.044,26.34,99.044 M26.34,96.291c-0.207,0-0.376,0.169-0.376,0.377c0,0.207,0.169,0.376,0.376,0.376
	c0.208,0,0.377-0.169,0.377-0.376C26.717,96.46,26.548,96.291,26.34,96.291"/>
<path d="M26.341,114.315c0.76,0,1.376,0.616,1.376,1.376c0,0.761-0.616,1.377-1.376,1.377s-1.376-0.616-1.376-1.377
	C24.965,114.932,25.581,114.315,26.341,114.315"/>
<path d="M26.34,118.068c-1.311,0-2.376-1.065-2.376-2.376s1.065-2.377,2.376-2.377s2.377,1.066,2.377,2.377
	S27.651,118.068,26.34,118.068 M26.34,115.315c-0.207,0-0.376,0.169-0.376,0.377c0,0.207,0.169,0.376,0.376,0.376
	c0.208,0,0.377-0.169,0.377-0.376C26.717,115.484,26.548,115.315,26.34,115.315"/>
<path d="M39.527,102.309c0.76,0,1.376,0.616,1.376,1.377c0,0.76-0.616,1.376-1.376,1.376c-0.76,0-1.376-0.616-1.376-1.376
	C38.151,102.925,38.767,102.309,39.527,102.309"/>
<path d="M39.527,106.063c-1.311,0-2.377-1.067-2.377-2.377c0-1.311,1.066-2.377,2.377-2.377s2.377,1.066,2.377,2.377
	C41.904,104.995,40.838,106.063,39.527,106.063 M39.527,103.309c-0.208,0-0.377,0.169-0.377,0.377s0.169,0.377,0.377,0.377
	s0.377-0.169,0.377-0.377S39.735,103.309,39.527,103.309"/>
<path d="M39.527,120.308c0.76,0,1.376,0.616,1.376,1.377c0,0.76-0.616,1.376-1.376,1.376c-0.76,0-1.376-0.616-1.376-1.376
	C38.151,120.924,38.767,120.308,39.527,120.308"/>
<path d="M39.527,124.062c-1.311,0-2.377-1.066-2.377-2.377s1.066-2.377,2.377-2.377s2.377,1.066,2.377,2.377
	S40.838,124.062,39.527,124.062 M39.527,121.308c-0.208,0-0.377,0.169-0.377,0.377s0.169,0.377,0.377,0.377s0.377-0.169,0.377-0.377
	S39.735,121.308,39.527,121.308"/>
<path d="M51.73,108.444c0.76,0,1.376,0.616,1.376,1.377c0,0.76-0.616,1.376-1.376,1.376c-0.76,0-1.377-0.616-1.377-1.376
	C50.354,109.061,50.97,108.444,51.73,108.444"/>
<path d="M51.73,112.198c-1.311,0-2.376-1.067-2.376-2.377c0-1.311,1.065-2.377,2.376-2.377s2.377,1.066,2.377,2.377
	C54.107,111.131,53.041,112.198,51.73,112.198 M51.73,109.444c-0.207,0-0.376,0.169-0.376,0.377s0.169,0.377,0.376,0.377
	c0.208,0,0.377-0.169,0.377-0.377S51.938,109.444,51.73,109.444"/>
<path d="M51.73,92.6c0.76,0,1.376,0.616,1.376,1.377c0,0.76-0.616,1.376-1.376,1.376c-0.76,0-1.377-0.616-1.377-1.376
	C50.354,93.216,50.97,92.6,51.73,92.6"/>
<path d="M51.73,96.354c-1.311,0-2.376-1.066-2.376-2.377S50.419,91.6,51.73,91.6s2.377,1.066,2.377,2.377
	S53.041,96.354,51.73,96.354 M51.73,93.6c-0.207,0-0.376,0.169-0.376,0.377s0.169,0.377,0.376,0.377
	c0.208,0,0.377-0.169,0.377-0.377S51.938,93.6,51.73,93.6"/>
</svg>
