<?xml version="1.0" encoding="utf-8"?>
<!-- Generator: Adobe Illustrator 14.0.0, SVG Export Plug-In  -->
<!DOCTYPE svg PUBLIC "-//W3C//DTD SVG 1.1//EN" "http://www.w3.org/Graphics/SVG/1.1/DTD/svg11.dtd" [
	<!ENTITY ns_flows "http://ns.adobe.com/Flows/1.0/">
]>
<svg version="1.1"
	 xmlns="http://www.w3.org/2000/svg" xmlns:xlink="http://www.w3.org/1999/xlink" xmlns:a="http://ns.adobe.com/AdobeSVGViewerExtensions/3.0/"
	 x="0px" y="0px" width="169px" height="134px" viewBox="0 0 169 134" enable-background="new 0 0 169 134" xml:space="preserve">
<defs>
</defs>
<polygon fill="#C5D0E2" points="118.309,0 84.25,69.013 52.702,24.02 0,114.007 168.5,114.007 "/>
<g>
	<defs>
		<rect id="SVGID_1_" x="0" width="168.5" height="134.287"/>
	</defs>
	<clipPath id="SVGID_2_">
		<use xlink:href="#SVGID_1_"  overflow="visible"/>
	</clipPath>
	<path clip-path="url(#SVGID_2_)" d="M135.153,84.653c-6.546,0-11.871,5.326-11.871,11.873s5.325,11.874,11.871,11.874
		c6.548,0,11.875-5.327,11.875-11.874S141.701,84.653,135.153,84.653 M135.153,105.333c-4.854,0-8.804-3.951-8.804-8.807
		s3.949-8.807,8.804-8.807c4.857,0,8.809,3.951,8.809,8.807S140.01,105.333,135.153,105.333 M146.804,121.369
		c9.323-4.389,15.796-13.872,15.796-24.842c0-15.132-12.311-27.443-27.441-27.443c-15.135,0-27.446,12.312-27.446,27.443
		c0,10.973,6.477,20.457,15.806,24.845c-5.952,1.47-11.252,4.044-15.131,7.475c-0.827,0.732-0.904,1.996-0.173,2.823
		c0.73,0.826,1.994,0.374,2.821-0.357c5.574-4.931,14.593-7.873,24.123-7.873c10.75,0,17.912,2.886,23.949,9.648
		c0.396,0.442,0.942,1.199,1.493,1.199c0.474,0,0.949-0.167,1.331-0.508c0.824-0.736,0.896-2,0.16-2.824
		C157.785,126.13,152.857,123.008,146.804,121.369 M110.974,96.526c0-13.334,10.85-24.182,24.185-24.182
		c13.333,0,24.18,10.849,24.18,24.182s-10.847,24.182-24.18,24.182C121.823,120.708,110.974,109.86,110.974,96.526"/>
</g>
</svg>
